<!-- "amk" set in Russo One by Jovanny Lemonad (SIL OFL 1.1), converted to paths; wave pattern from bookofshapes.com -->
<svg xmlns="http://www.w3.org/2000/svg" viewBox="0 0 576 317.4">
<defs><path id="amk" d="M260 -130Q313 -130 380 -150V-210H235Q220 -210 210.0 -200.0Q200 -190 200 -175V-165Q200 -150 210.0 -140.0Q220 -130 235 -130ZM75 -520Q258 -540 405 -540Q473 -540 514.0 -499.0Q555 -458 555 -390V0H400L390 -50Q343 -19 293.5 -4.5Q244 10 210 10H175Q107 10 66.0 -31.0Q25 -72 25 -140V-185Q25 -253 66.0 -294.0Q107 -335 175 -335H380V-375Q380 -390 370.0 -400.0Q360 -410 345 -410Q280 -410 201.5 -404.0Q123 -398 75 -395ZM1000 -540Q1081 -540 1125 -480Q1171 -511 1224.5 -525.5Q1278 -540 1320 -540H1330Q1398 -540 1439.0 -499.0Q1480 -458 1480 -390V0H1305V-360Q1305 -375 1295.0 -385.0Q1285 -395 1270 -395H1265Q1220 -395 1150 -375V0H975V-360Q975 -375 965.0 -385.0Q955 -395 940 -395H935Q890 -395 820 -375V0H645V-530H800L810 -480Q857 -511 906.5 -525.5Q956 -540 990 -540ZM1745 -210V0H1570V-700H1745V-345H1825L1935 -530H2120L1970 -275L2120 0H1935L1820 -210Z"/><mask id="halo" maskUnits="userSpaceOnUse" x="0" y="0" width="576" height="317.4"><rect width="576" height="317.4" fill="#fff"/><use href="#amk" transform="translate(75.7 227) scale(0.19796)" fill="#000" stroke="#000" stroke-width="70" stroke-linejoin="round"/></mask></defs>
<g mask="url(#halo)" fill="none" stroke="#555" stroke-width="1" stroke-linecap="round" stroke-linejoin="round" vector-effect="non-scaling-stroke">
<path d="M0 32.8 153 32.7 171 31.5 216 26.3 225 25.6 234 25.3 243 25.4 252 25.9 261 26.9 270 28.5 279 30.5 288 32.8 297 35.5 324 44.4 333 47.1 342 49.4 351 51.3 360 52.4 369 52.9 378 52.5 387 51.2 396 49 405 46 414 42.2 423 37.8 432 32.8 459 17 468 12.1 477 7.7 486 4.2 495 1.6 504 0.2 513 0 522 1.2 531 3.6 540 7.4 549 12.4 558 18.5 567 25.4 576 32.8"/>
<path d="M0 38.8 144 38.7 153 38.4 162 37.8 207 33.1 216 32.5 225 32.2 234 32.4 243 33.1 252 34.2 261 35.8 270 37.8 279 40.3 315 51.2 324 53.6 333 55.5 342 56.7 351 57.3 360 57 369 55.8 378 53.8 387 50.9 396 47.3 405 43 414 38.2 441 22.9 450 18.2 459 14.2 468 11 477 8.8 486 7.8 495 8.1 504 9.8 513 12.8 522 17 531 22.5 540 28.8 549 35.9 576 58.6"/>
<path d="M0 44.7 144 44.6 162 43.4 198 39.8 207 39.3 216 39.1 225 39.3 234 40 243 41.2 252 42.9 261 44.9 270 47.3 297 55.2 306 57.6 315 59.5 324 61 333 61.7 342 61.6 351 60.7 360 59 369 56.3 378 52.9 387 48.8 396 44.2 423 29.4 432 24.9 441 21.1 450 18.1 459 16.2 468 15.5 477 16.1 486 18.1 495 21.4 504 25.9 513 31.6 522 38.1 531 45.2 549 60.2 558 67.2 567 73.6 576 78.9"/>
<path d="M0 50.6 144 50.5 153 50 189 46.6 198 46.1 207 45.9 216 46.2 225 46.9 234 48 243 49.7 252 51.7 288 61.4 297 63.5 306 65.1 315 66.1 324 66.4 333 65.8 342 64.4 351 62.1 360 59 369 55.2 378 50.8 405 36.5 414 32.1 423 28.4 432 25.5 441 23.7 450 23.1 459 23.9 468 26 477 29.4 486 34 495 39.8 504 46.3 531 67.9 540 74.6 549 80.4 558 85.1 567 88.3 576 89.8"/>
<path d="M0 56.5 144 56.4 180 53.3 189 52.8 198 52.6 207 52.9 216 53.5 225 54.7 234 56.3 243 58.2 279 67.3 288 69.1 297 70.4 306 71 315 70.8 324 69.8 333 68 342 65.3 351 61.8 360 57.8 387 44 396 39.7 405 36 414 33.1 423 31.3 432 30.7 441 31.3 450 33.4 459 36.8 468 41.4 477 47.1 486 53.5 513 74.6 522 80.9 531 86.3 540 90.5 549 93 558 93.9 567 92.8 576 89.9"/>
<path d="M0 62.4 144 62.4 171 60.1 180 59.5 189 59.3 198 59.4 207 60.1 216 61.1 225 62.6 234 64.5 261 71 270 73 279 74.5 288 75.5 297 75.8 306 75.2 315 73.9 324 71.7 333 68.7 342 65 351 60.9 378 47.7 387 43.9 396 40.9 405 38.9 414 38.1 423 38.6 432 40.4 441 43.6 450 48.1 459 53.6 468 59.9 495 80.4 504 86.5 513 91.6 522 95.3 531 97.5 540 97.9 549 96.3 558 92.8 567 87.6 576 80.8"/>
<path d="M0 68.4 144 68.3 171 66.2 180 65.9 189 65.9 198 66.5 207 67.4 216 68.8 225 70.6 252 76.7 261 78.4 270 79.7 279 80.5 288 80.5 297 79.7 306 78 315 75.6 324 72.4 333 68.6 360 55.9 369 52.1 378 48.9 387 46.7 396 45.5 405 45.7 414 47.2 423 50.1 432 54.2 441 59.4 450 65.5 477 85.5 486 91.4 495 96.3 504 99.9 513 101.8 522 101.9 531 100.1 540 96.4 549 90.9 558 83.8 567 75.6 576 66.6"/>
<path d="M0 74.3 135 74.3 144 74.2 162 72.8 171 72.4 180 72.4 189 72.8 198 73.6 207 74.9 216 76.5 243 82.2 252 83.8 261 84.9 270 85.4 279 85.2 288 84.2 297 82.4 306 79.7 315 76.4 324 72.6 351 60.5 360 57.1 369 54.6 378 53.1 387 52.8 396 53.8 405 56.2 414 59.9 423 64.8 432 70.5 459 89.9 468 95.8 477 100.7 486 104.2 495 106.1 504 106.2 513 104.3 522 100.5 531 95 540 87.9 549 79.7 576 52.9"/>
<path d="M0 80.2 135 80.2 144 80.1 162 79 171 78.8 180 79 189 79.7 198 80.8 207 82.3 234 87.5 243 89 252 90 261 90.4 270 90 279 88.9 288 86.9 297 84.2 306 80.8 333 69.1 342 65.6 351 62.7 360 60.8 369 59.9 378 60.4 387 62.2 396 65.3 405 69.7 414 75.1 423 81.1 441 93.9 450 99.7 459 104.7 468 108.3 477 110.4 486 110.6 495 108.9 504 105.3 513 99.9 522 92.9 531 84.8 549 67.1 558 58.6 567 51.1 576 45.1"/>
<path d="M0 86.1 135 86.1 144 86 162 85.2 171 85.2 180 85.7 189 86.7 198 88 225 92.8 234 94.2 243 95.1 252 95.4 261 94.9 270 93.7 279 91.6 288 88.9 297 85.6 324 74.4 333 71.2 342 68.8 351 67.3 360 67.1 369 68.2 378 70.7 387 74.4 396 79.3 405 84.9 423 97.3 432 103.2 441 108.3 450 112.2 459 114.6 468 115.2 477 113.8 486 110.5 495 105.4 504 98.7 513 90.8 531 73.5 540 65.2 549 57.9 558 52.1 567 48.4 576 47"/>
<path d="M0 92 135 92 162 91.4 171 91.7 180 92.5 189 93.6 216 98.1 225 99.3 234 100.1 243 100.4 252 99.9 261 98.6 270 96.6 279 93.9 288 90.6 315 79.9 324 77.1 333 75.1 342 74.2 351 74.5 360 76.2 369 79.1 378 83.3 387 88.5 414 106.3 423 111.6 432 115.8 441 118.6 450 119.7 459 118.9 468 116.1 477 111.5 486 105.2 495 97.6 522 72.5 531 65.3 540 59.6 549 55.9 558 54.6 567 55.8 576 59.7"/>
<path d="M0 98 135 98 153 97.6 162 97.7 171 98.2 180 99.2 216 104.4 225 105.2 234 105.5 243 105 252 103.7 261 101.7 270 99.1 279 95.9 297 89 306 85.8 315 83.3 324 81.7 333 81.2 342 81.9 351 84 360 87.4 369 91.9 378 97.3 396 108.9 405 114.4 414 119 423 122.4 432 124.1 441 124 450 121.9 459 117.9 468 112.2 477 105.1 504 80.5 513 73.2 522 67.4 531 63.6 540 62.1 549 63.2 558 66.9 567 73 576 81.2"/>
<path d="M0 103.9 153 103.7 162 104 171 104.7 207 109.6 216 110.3 225 110.6 234 110.2 243 109 252 107.1 261 104.5 288 94.9 297 91.9 306 89.7 315 88.4 324 88.2 333 89.3 342 91.8 351 95.5 360 100.2 387 116.9 396 121.8 405 125.7 414 128.2 423 128.9 432 127.7 441 124.5 450 119.5 459 113 468 105.4 486 89.1 495 81.7 504 75.7 513 71.5 522 69.6 531 70.3 540 73.6 549 79.4 558 87.3 567 96.9 576 107.4"/>
<path d="M0 109.8 153 109.8 162 110.3 171 111.2 198 114.7 207 115.5 216 115.8 225 115.4 234 114.4 243 112.6 252 110.1 279 100.9 288 98.2 297 96.2 306 95.1 315 95.3 324 96.7 333 99.4 342 103.2 351 108 378 124.2 387 128.7 396 131.9 405 133.5 414 133.2 423 131.1 432 127 441 121.2 450 114.1 468 98.3 477 90.7 486 84.3 495 79.6 504 77.2 513 77.2 522 79.9 531 85.1 540 92.6 549 101.8 567 122.6 576 132.6"/>
<path d="M0 115.7 144 115.7 153 115.9 162 116.6 189 119.7 198 120.6 207 121 216 120.7 225 119.8 234 118.2 243 115.9 270 107.2 279 104.7 288 102.8 297 102 306 102.3 315 103.9 324 106.7 333 110.7 342 115.5 360 126.2 369 131 378 135 387 137.5 396 138.4 405 137.3 414 134.3 423 129.5 432 123.1 441 115.8 459 100.3 468 93.5 477 88.2 486 85 495 84.2 504 86.1 513 90.5 522 97.3 531 106 558 136.3 567 144.9 576 151.5"/>
<path d="M0 121.6 144 121.7 153 122 162 122.8 189 125.7 198 126.2 207 126.1 216 125.3 225 123.9 234 121.8 261 113.6 270 111.2 279 109.5 288 108.8 297 109.2 306 110.9 315 113.9 324 117.9 333 122.7 351 133 360 137.5 369 140.9 378 142.9 387 143 396 141.3 405 137.6 414 132.2 423 125.5 441 110.3 450 103.2 459 97.3 468 93.2 477 91.4 486 92.2 495 95.7 504 101.6 513 109.6 522 119.1 540 139.2 549 148.1 558 155.1 567 159.4 576 160.6"/>
<path d="M0 127.6 144 127.6 153 128.1 180 130.8 189 131.4 198 131.5 207 130.9 216 129.7 225 127.8 234 125.4 252 120.1 261 117.8 270 116.2 279 115.5 288 116.1 297 117.8 306 120.8 315 124.8 342 139.4 351 143.5 360 146.5 369 148 378 147.5 387 145.2 396 141 405 135.2 414 128.3 432 113.5 441 107 450 102 459 99.1 468 98.7 477 101 486 105.8 495 112.9 504 121.7 522 141.5 531 150.7 540 158.1 549 163.1 558 165.1 567 163.7 576 158.9"/>
<path d="M0 133.5 144 133.5 153 134.1 180 136.6 189 136.9 198 136.5 207 135.5 216 133.8 225 131.7 243 126.7 252 124.5 261 122.9 270 122.3 279 122.8 288 124.6 297 127.5 306 131.4 333 145.5 342 149.3 351 151.9 360 152.9 369 152.1 378 149.2 387 144.7 396 138.6 423 117.3 432 111.5 441 107.5 450 105.7 459 106.6 468 110 477 116 486 124 513 152.5 522 160.6 531 166.4 540 169.4 549 169 558 165.2 567 158.3 576 148.6"/>
<path d="M0 139.4 144 139.5 171 141.8 180 142.2 189 142.1 198 141.3 207 139.9 216 138 243 131.2 252 129.7 261 129 270 129.5 279 131.2 288 134 297 137.8 324 151.4 333 154.9 342 157.2 351 157.9 360 156.6 369 153.5 378 148.6 387 142.4 405 128.3 414 121.8 423 116.7 432 113.5 441 112.8 450 114.7 459 119.3 468 126.1 477 134.7 495 153.8 504 162.4 513 169.1 522 173.2 531 174.1 540 171.6 549 165.8 558 157.1 567 146.2 576 134.1"/>
<path d="M0 145.3 144 145.4 171 147.5 180 147.6 189 147.1 198 146 207 144.3 234 137.9 243 136.4 252 135.7 261 136.1 270 137.6 279 140.3 288 144 315 157 324 160.4 333 162.4 342 162.8 351 161.3 360 157.9 369 152.8 378 146.5 396 132.8 405 126.8 414 122.3 423 120 432 120.2 441 123.1 450 128.5 459 136 468 144.9 486 163.4 495 171.1 504 176.4 513 178.8 522 177.8 531 173.4 540 165.9 549 155.8 567 132.3 576 121.1"/>
<path d="M0 151.2 135 151.2 144 151.3 162 152.8 171 153.1 180 152.9 189 152.1 198 150.7 225 144.7 234 143.2 243 142.4 252 142.6 261 144 270 146.5 279 150 306 162.5 315 165.7 324 167.6 333 167.7 342 166 351 162.5 360 157.4 369 151.1 387 137.8 396 132.2 405 128.4 414 126.8 423 127.8 432 131.4 441 137.5 450 145.4 468 163.7 477 172.2 486 178.7 495 182.7 504 183.4 513 180.7 522 174.7 531 165.8 540 154.9 558 131.7 567 121.9 576 114.7"/>
<path d="M0 157.2 135 157.2 144 157.3 162 158.5 171 158.6 180 158.1 189 157 198 155.4 216 151.5 225 150 234 149.1 243 149.1 252 150.3 261 152.6 270 155.9 297 167.9 306 170.9 315 172.7 324 172.7 333 171 342 167.4 351 162.2 378 143.1 387 138 396 134.7 405 133.7 414 135.4 423 139.7 432 146.2 441 154.5 459 172.4 468 180.1 477 185.6 486 188.2 495 187.4 504 183.2 513 175.8 522 166 540 143.1 549 132.5 558 124.3 567 119.4 576 118.4"/>
<path d="M0 163.1 135 163.1 144 163.2 162 164.1 171 164 180 163.2 189 161.9 216 156.8 225 155.8 234 155.6 243 156.6 252 158.6 261 161.6 288 173.1 297 176.1 306 177.8 315 177.8 324 176 333 172.4 342 167.3 360 154.8 369 148.8 378 144 387 141.2 396 140.7 405 142.9 414 147.7 423 154.6 450 180.4 459 187.3 468 191.7 477 193.1 486 191 495 185.5 504 177.1 513 166.6 531 144.1 540 134.8 549 128.3 558 125.5 567 127 576 132.8"/>
<path d="M0 169 135 169 144 169.1 153 169.6 162 169.7 171 169.3 180 168.3 207 163.6 216 162.5 225 162.1 234 162.8 243 164.5 252 167.3 261 170.8 279 178.3 288 181.2 297 182.9 306 183 315 181.2 324 177.7 333 172.7 351 160.5 360 154.8 369 150.3 378 147.8 387 147.8 396 150.4 405 155.5 414 162.6 432 179.8 441 187.7 450 193.9 459 197.4 468 197.6 477 194.4 486 187.8 495 178.6 513 156.6 522 146.3 531 138.2 540 133.5 549 132.9 558 136.6 567 144.4 576 155.5"/>
<path d="M0 174.9 135 174.9 153 175.4 162 175.3 171 174.7 180 173.5 198 170.4 207 169.2 216 168.7 225 169 234 170.5 243 172.9 252 176.1 270 183.3 279 186.2 288 188 297 188.2 306 186.6 315 183.2 324 178.4 342 166.5 351 160.9 360 156.7 369 154.5 378 154.8 387 157.6 396 163 405 170.2 423 187.1 432 194.6 441 200.1 450 202.7 459 201.9 468 197.7 477 190.3 486 180.6 504 158.8 513 149.4 522 142.7 531 139.8 540 141.1 549 146.8 558 156.2 567 168.4 576 181.9"/>
<path d="M0 180.8 135 180.8 153 181.1 162 180.8 171 180 198 176 207 175.2 216 175.3 225 176.4 234 178.5 243 181.4 261 188.3 270 191.2 279 193.1 288 193.4 297 192 306 188.8 315 184.2 333 172.7 342 167.3 351 163.3 360 161.2 369 161.7 378 164.7 387 170.2 396 177.5 414 194 423 201 432 205.9 441 207.7 450 206.1 459 201.1 468 193.2 477 183.1 486 172.2 495 161.9 504 153.4 513 148.1 522 146.9 531 150 540 157.2 549 167.9 558 180.7 567 194.1 576 206.4"/>
<path d="M0 186.8 153 186.9 162 186.4 171 185.4 189 182.8 198 181.9 207 181.7 216 182.4 225 184.1 234 186.7 252 193.2 261 196.2 270 198.1 279 198.7 288 197.5 297 194.6 306 190.2 324 179.1 333 173.8 342 169.9 351 168 360 168.5 369 171.6 378 177.1 387 184.4 405 200.5 414 207.1 423 211.4 432 212.6 441 210.4 450 204.8 459 196.3 468 186.1 477 175.4 486 165.6 495 158.2 504 154.2 513 154.5 522 159.1 531 167.6 540 179.2 558 205.3 567 216.3 576 223.9"/>
<path d="M0 192.7 153 192.6 162 191.9 189 188.6 198 188.1 207 188.5 216 189.8 225 192 252 201 261 203.1 270 203.9 279 203.1 288 200.5 297 196.4 324 180.5 333 176.6 342 174.7 351 175.2 360 178.3 369 183.8 378 190.9 396 206.7 405 213 414 216.8 423 217.5 432 214.7 441 208.7 450 199.9 468 179.2 477 170.1 486 163.6 495 160.8 504 162.4 513 168.3 522 177.9 531 190 540 203.1 549 215.3 558 224.9 567 230.5 576 231.1"/>
<path d="M0 198.6 144 198.6 153 198.3 162 197.5 180 195.4 189 194.7 198 194.7 207 195.6 216 197.4 225 200 243 205.9 252 208.1 261 209.1 270 208.6 279 206.4 288 202.6 297 197.7 315 187.3 324 183.4 333 181.5 342 181.9 351 184.8 360 190.2 369 197.2 387 212.5 396 218.6 405 222.1 414 222.4 423 219.2 432 212.8 441 203.9 459 183.6 468 175 477 169.4 486 167.8 495 170.5 504 177.4 513 187.7 531 213 540 224.3 549 232.5 558 236.2 567 234.6 576 227.7"/>
<path d="M0 204.5 144 204.5 153 204.1 180 201.3 189 201 198 201.5 207 202.9 216 205.1 234 210.7 243 213 252 214.3 261 214.2 270 212.3 279 209 288 204.4 306 194.2 315 190.3 324 188.2 333 188.4 342 191.2 351 196.3 360 203.2 378 218.2 387 224 396 227.3 405 227.3 414 223.9 423 217.3 432 208.4 450 188.4 459 180.5 468 175.6 477 174.9 486 178.5 495 186.3 504 197.2 522 222.1 531 232.5 540 239.2 549 241 558 237.5 567 228.9 576 216.4"/>
<path d="M0 210.4 144 210.4 153 209.9 171 208 180 207.4 189 207.5 198 208.5 207 210.3 234 217.9 243 219.4 252 219.6 261 218.3 270 215.3 279 211.1 297 201.2 306 197.2 315 195 324 194.9 333 197.5 342 202.3 351 208.9 369 223.6 378 229.2 387 232.4 396 232.3 405 228.8 414 222.1 423 213.2 432 203.2 441 193.7 450 186.2 459 182.1 468 182.1 477 186.5 486 194.9 495 206.1 504 218.6 513 230.5 522 239.9 531 245.2 540 245.4 549 240.2 558 230.2 567 216.7 576 201.7"/>
<path d="M0 216.4 144 216.3 171 214 180 213.7 189 214.2 198 215.6 207 217.7 225 222.7 234 224.4 243 225.1 252 224.2 261 221.7 270 217.8 288 208.3 297 204.3 306 201.8 315 201.4 324 203.6 333 208.1 342 214.5 360 228.8 369 234.4 378 237.5 387 237.4 396 233.9 405 227.3 414 218.4 423 208.6 432 199.4 441 192.3 450 188.7 459 189.3 468 194.3 477 203.1 486 214.5 495 226.9 504 238.2 513 246.6 522 250.6 531 249.4 540 242.8 549 231.7 558 217.7 567 202.8 576 189.5"/>
<path d="M0 222.3 144 222.2 162 220.7 171 220.1 180 220.2 189 221.1 198 222.8 216 227.4 225 229.4 234 230.4 243 229.9 252 228 261 224.6 279 215.5 288 211.4 297 208.6 306 207.9 315 209.7 324 213.8 333 219.8 351 233.8 360 239.4 369 242.6 378 242.6 387 239.2 396 232.7 405 223.9 414 214.3 423 205.3 432 198.6 441 195.3 450 196.4 459 201.8 468 210.9 477 222.4 486 234.6 495 245.3 504 252.9 513 255.7 522 253.2 531 245.5 540 233.6 558 204.9 567 192.6 576 184.7"/>
<path d="M0 228.2 144 228.1 162 226.6 171 226.3 180 226.8 189 228 216 234.3 225 235.5 234 235.6 243 234.2 252 231.3 261 227.3 279 218.6 288 215.6 297 214.5 306 215.7 315 219.4 324 225 342 238.7 351 244.3 360 247.6 369 247.8 378 244.6 387 238.3 396 229.8 405 220.3 414 211.5 423 205 432 202.1 441 203.4 450 209.1 459 218.4 477 241.8 486 252 495 258.7 504 260.6 513 257.1 522 248.5 531 236 549 207.7 558 196.6 567 190.3 576 190.2"/>
<path d="M0 234.1 135 234.1 144 234 162 232.7 171 232.7 180 233.5 189 235 207 239.1 216 240.6 225 241.1 234 240.3 243 237.9 252 234.3 270 225.9 279 222.6 288 221.1 297 221.8 306 224.9 315 230.1 333 243.4 342 249.1 351 252.6 360 253.1 369 250.3 378 244.2 387 235.9 396 226.6 405 218 414 211.6 423 208.8 432 210.3 441 216.1 450 225.4 468 248.5 477 258.3 486 264.3 495 265.4 504 261.1 513 251.8 522 238.9 531 224.6 540 211.3 549 201.3 558 196.6 567 198.2 576 206.2"/>
<path d="M0 240 135 240 144 239.9 162 238.9 171 239.1 180 240.2 207 245.6 216 246.5 225 246.2 234 244.4 243 241.3 261 233.2 270 229.7 279 227.8 288 228 297 230.5 306 235.2 315 241.4 324 248 333 253.8 342 257.6 351 258.4 360 256 369 250.3 378 242.3 387 233.2 396 224.7 405 218.3 414 215.5 423 217 432 222.8 441 232.1 459 254.8 468 264.2 477 269.7 486 270.2 495 265.2 504 255.4 513 242.4 522 228.2 531 215.5 540 206.6 549 203.3 558 206.5 567 215.8 576 229.9"/>
<path d="M0 246 135 246 144 245.9 153 245.3 162 245.1 171 245.6 180 246.9 198 250.4 207 251.7 216 251.9 225 250.7 234 248.2 261 237 270 234.6 279 234.2 288 236.1 297 240.2 306 246 315 252.4 324 258.3 333 262.4 342 263.7 351 261.8 360 256.6 369 248.9 378 240 387 231.6 396 225.2 405 222.3 414 223.6 423 229.3 432 238.4 450 260.8 459 269.9 468 275 477 275 486 269.6 495 259.5 504 246.3 513 232.4 522 220.3 531 212.4 540 210.3 549 214.8 558 225.2 567 239.9 576 256.4"/>
<path d="M0 251.9 135 251.9 144 251.8 153 251.3 162 251.4 171 252.2 198 256.7 207 257.4 216 256.8 225 254.9 234 251.8 252 244.3 261 241.6 270 240.6 279 241.8 288 245.3 297 250.6 315 262.7 324 267.2 333 269 342 267.6 351 262.9 360 255.7 378 238.6 387 232.2 396 229 405 230.1 414 235.5 423 244.5 441 266.4 450 275.3 459 280.2 468 279.9 477 274.3 486 264 504 237.1 513 225.6 522 218.5 531 217.5 540 222.9 549 234.2 558 249.3 567 265.6 576 280"/>
<path d="M0 257.8 135 257.8 153 257.4 162 257.7 171 258.6 189 261.7 198 262.7 207 262.7 216 261.4 225 258.9 243 251.8 252 248.7 261 247.2 270 247.7 279 250.5 288 255.2 306 267 315 271.8 324 274.1 333 273.4 342 269.4 351 262.6 369 245.9 378 239.2 387 235.8 396 236.5 405 241.5 414 250.2 432 271.8 441 280.6 450 285.4 459 285 468 279.2 477 268.8 495 242.3 504 231.3 513 224.9 522 224.6 531 230.9 540 242.8 549 258.2 558 274.1 567 287.6 576 295.9"/>
<path d="M0 263.7 135 263.7 153 263.5 162 264 189 267.8 198 268.3 207 267.7 216 265.7 225 262.7 243 256 252 254 261 253.8 270 255.8 279 259.8 288 265.3 297 271.2 306 276.2 315 279.1 324 279.1 333 275.8 342 269.6 360 253.3 369 246.5 378 242.6 387 242.8 396 247.4 405 255.6 423 276.9 432 285.6 441 290.4 450 290.1 459 284.4 468 274.1 486 247.9 495 237.3 504 231.4 513 231.8 522 238.6 531 250.9 549 282 558 294.7 567 301.6 576 301.3"/>
<path d="M0 269.6 153 269.6 162 270.3 180 272.8 189 273.7 198 273.6 207 272.3 216 269.9 234 263.4 243 260.9 252 260 261 261.2 270 264.6 279 269.6 288 275.3 297 280.5 306 284 315 284.7 324 282.2 333 276.7 342 269.1 351 260.9 360 253.9 369 249.6 378 249.2 387 253.1 396 260.9 414 281.7 423 290.5 432 295.5 441 295.4 450 289.8 459 279.7 477 253.9 486 243.5 495 238 504 238.8 513 246.1 522 258.6 540 289.3 549 301.2 558 307.1 567 305.4 576 296.3"/>
<path d="M0 275.6 144 275.5 153 275.7 162 276.5 180 278.8 189 279.3 198 278.7 207 276.8 234 268.1 243 266.6 252 267 261 269.5 270 273.9 288 284.7 297 288.7 306 290.1 315 288.5 324 283.8 333 276.7 342 268.7 351 261.4 360 256.6 369 255.6 378 258.8 387 266 396 275.8 405 286.3 414 295.2 423 300.5 432 300.7 441 295.5 450 285.7 468 260.3 477 250 486 244.7 495 245.7 504 253.2 513 265.8 531 296.1 540 307.3 549 312.3 558 309.6 567 299.6 576 284"/>
<path d="M0 281.5 144 281.5 153 281.8 180 284.7 189 284.6 198 283.5 207 281.2 225 275.4 234 273.4 243 273 252 274.7 261 278.3 279 288.7 288 293.1 297 295.4 306 294.6 315 290.8 324 284.4 342 269.2 351 263.8 360 262 369 264.4 378 270.9 387 280.3 396 290.6 405 299.7 414 305.4 423 306.1 432 301.4 441 291.9 459 266.9 468 256.7 477 251.4 486 252.5 495 260 504 272.6 513 287.9 522 302.4 531 313.2 540 317.4 549 314 558 303.3 567 287.3 576 269.4"/>
</g>
<use href="#amk" transform="translate(75.7 227) scale(0.19796)" fill="#fff"/>
</svg>
